<?xml version="1.0" standalone="no"?>
<!DOCTYPE svg PUBLIC "-//W3C//DTD SVG 20010904//EN"
 "http://www.w3.org/TR/2001/REC-SVG-20010904/DTD/svg10.dtd">
<svg version="1.0" xmlns="http://www.w3.org/2000/svg"
 width="512.000000pt" height="512.000000pt" viewBox="0 0 512.000000 512.000000"
 preserveAspectRatio="xMidYMid meet">
<metadata>
Created by potrace 1.16, written by Peter Selinger 2001-2019
</metadata>
<g transform="translate(0.000000,512.000000) scale(0.100000,-0.100000)"
fill="#000000" stroke="none">
<path d="M2365 4363 c-314 -67 -551 -324 -596 -649 -34 -246 74 -517 271 -680
66 -54 211 -128 300 -151 90 -24 300 -24 389 1 263 72 478 286 546 541 84 321
-58 674 -339 844 -166 100 -380 135 -571 94z m317 -168 c106 -26 187 -73 273
-160 120 -120 175 -250 175 -411 -1 -230 -128 -435 -330 -532 -101 -48 -163
-62 -273 -62 -388 0 -672 362 -577 734 28 110 74 190 155 271 156 156 361 213
577 160z"/>
<path d="M3945 3842 c-210 -63 -372 -231 -420 -434 -63 -267 71 -549 315 -666
101 -48 163 -62 274 -62 265 0 496 176 572 435 23 80 23 230 0 309 -56 190
-198 342 -377 406 -90 31 -278 38 -364 12z m247 -153 c84 -18 158 -58 219
-118 250 -250 111 -665 -242 -722 -129 -21 -259 22 -360 117 -102 98 -146 225
-127 367 32 236 274 406 510 356z"/>
<path d="M866 3764 c-205 -50 -370 -209 -432 -419 -23 -80 -23 -230 0 -310 61
-206 223 -367 426 -420 73 -19 230 -19 305 0 208 55 381 231 430 437 47 199
-13 408 -159 554 -78 78 -194 143 -294 163 -72 15 -204 12 -276 -5z m214 -155
c92 -14 161 -49 231 -115 256 -245 119 -667 -235 -726 -132 -22 -269 24 -369
123 -263 263 -87 700 293 728 8 0 44 -4 80 -10z"/>
<path d="M2355 2759 c-161 -24 -346 -88 -490 -170 -93 -53 -228 -154 -278
-207 l-29 -30 -76 39 c-164 84 -311 114 -519 106 -109 -4 -157 -10 -228 -31
-345 -102 -596 -350 -702 -692 -27 -88 -27 -93 -28 -360 l0 -271 28 -40 c15
-22 50 -52 76 -67 l49 -26 501 0 501 0 5 -28 c16 -75 28 -103 66 -146 23 -26
60 -57 83 -69 l41 -22 1205 0 1205 0 41 22 c48 26 110 92 130 138 7 18 16 62
20 99 l7 66 494 0 c538 0 535 0 596 58 16 15 38 44 49 66 19 36 19 54 16 295
-4 244 -6 260 -32 346 -53 175 -129 303 -258 432 -299 303 -767 385 -1155 203
-46 -21 -96 -48 -112 -60 l-30 -20 -88 70 c-200 161 -443 267 -686 299 -92 13
-316 12 -402 0z m410 -171 c103 -15 247 -63 359 -121 361 -185 606 -535 656
-937 5 -46 10 -185 10 -308 0 -244 -6 -278 -56 -301 -37 -17 -2333 -15 -2354
2 -48 37 -50 48 -50 302 0 336 25 482 114 671 117 247 312 448 554 572 151 78
275 112 482 136 48 5 200 -3 285 -16z m1497 -202 c314 -62 559 -276 656 -576
33 -100 42 -180 42 -367 0 -143 -3 -174 -16 -187 -14 -14 -73 -16 -503 -16
l-488 0 -7 158 c-10 242 -51 415 -141 594 -44 87 -136 231 -155 243 -25 15 -4
36 73 73 175 85 362 112 539 78z m-3037 -76 c44 -11 113 -36 154 -55 72 -35
73 -35 58 -58 -46 -64 -129 -211 -156 -275 -73 -173 -101 -318 -108 -564 l-6
-188 -483 0 c-479 0 -484 0 -505 21 -21 21 -21 28 -17 233 5 192 7 219 32 299
45 150 109 258 217 365 131 131 293 213 477 242 84 13 246 4 337 -20z"/>
</g>
</svg>
